<mxfile host="app.diagrams.net" modified="2023-07-31T09:40:25.621Z" agent="Mozilla/5.0 (Windows NT 10.0; Win64; x64) AppleWebKit/537.36 (KHTML, like Gecko) Chrome/115.0.0.0 Safari/537.36 Edg/115.0.1901.183" version="21.6.6" etag="dA9R-GVvAbfG2Esfhkeh" type="github">
  <diagram name="第 1 页" id="6oVJGlZfJgglKS6p-l_r">
    <mxGraphModel>
      <root>
        <mxCell id="0" />
        <mxCell id="1" parent="0" />
      </root>
    </mxGraphModel>
  </diagram>
</mxfile>
